<svg viewBox="0 0 24 24" xmlns="http://www.w3.org/2000/svg" xmlns:xlink="http://www.w3.org/1999/xlink" width="24.000000" height="24.000000" fill="none">
	<rect id="chocolate" width="24.000000" height="24.000000" x="0.000000" y="0.000000" />
	<path id="Vector 14" d="M0 13.4223L8.30393 0.497123L8.7924 0L14.8982 4.22555L14.8982 6.71116L16.3636 9.19678L9.5251 19.6364L0 13.4223Z" fill="rgb(252,241,224)" fill-rule="evenodd" transform="matrix(0.999848,-0.0174524,0.017024,0.999855,2.7294,1.63647)" />
	<path id="Vector" d="M8.51299 0L0 0L0 16.9091L12.5455 16.9091L12.5455 3.28788C9.85714 3.28788 8.51299 2.81818 8.51299 0ZM12.5455 11.2727L0 11.2727M0 5.63636L12.5455 5.63636M6.27273 16.9091L6.27273 0" fill-rule="nonzero" stroke="rgb(253,146,34)" stroke-linecap="round" stroke-linejoin="round" stroke-width="2" transform="matrix(0.848048,0.529919,-0.52053,0.853843,11.8017,1)" />
</svg>
